<svg width="12" height="12" viewBox="0 0 12 12" fill="none" xmlns="http://www.w3.org/2000/svg">
<g clip-path="url(#clip0_205_286)">
<path d="M8.5 1.00012H3.5C2.11929 1.00012 1 2.11941 1 3.50012V8.50012C1 9.88083 2.11929 11.0001 3.5 11.0001H8.5C9.88071 11.0001 11 9.88083 11 8.50012V3.50012C11 2.11941 9.88071 1.00012 8.5 1.00012Z" stroke="white" stroke-linecap="round" stroke-linejoin="round"/>
<path d="M7.9979 5.68503C8.05961 6.10115 7.98853 6.52614 7.79478 6.89954C7.60103 7.27294 7.29447 7.57573 6.91871 7.76487C6.54295 7.954 6.11712 8.01983 5.70179 7.95299C5.28646 7.88616 4.90278 7.69007 4.60532 7.39261C4.30786 7.09515 4.11177 6.71147 4.04493 6.29614C3.9781 5.8808 4.04393 5.45498 4.23306 5.07922C4.42219 4.70346 4.72499 4.3969 5.09839 4.20315C5.47179 4.0094 5.89678 3.93832 6.3129 4.00003C6.73736 4.06297 7.13033 4.26076 7.43375 4.56418C7.73717 4.8676 7.93496 5.26057 7.9979 5.68503Z" stroke="white" stroke-linecap="round" stroke-linejoin="round"/>
<path d="M8.75 3.25012H8.755" stroke="white" stroke-linecap="round" stroke-linejoin="round"/>
</g>
<defs>
<clipPath id="clip0_205_286">
<rect width="12" height="12" fill="white"/>
</clipPath>
</defs>
</svg>
