<svg width="12" height="12" viewBox="0 0 12 12" fill="none" xmlns="http://www.w3.org/2000/svg">
<path d="M7.99982 4C8.79547 4 9.55853 4.31607 10.1211 4.87868C10.6837 5.44129 10.9998 6.20435 10.9998 7V10.5H8.99982V7C8.99982 6.73478 8.89446 6.48043 8.70692 6.29289C8.51939 6.10536 8.26503 6 7.99982 6C7.7346 6 7.48025 6.10536 7.29271 6.29289C7.10517 6.48043 6.99982 6.73478 6.99982 7V10.5H4.99982V7C4.99982 6.20435 5.31589 5.44129 5.8785 4.87868C6.44111 4.31607 7.20417 4 7.99982 4Z" fill="white"/>
<path d="M3 4.5H1V10.5H3V4.5Z" fill="white"/>
<path d="M2 3.00012C2.55228 3.00012 3 2.55241 3 2.00012C3 1.44784 2.55228 1.00012 2 1.00012C1.44772 1.00012 1 1.44784 1 2.00012C1 2.55241 1.44772 3.00012 2 3.00012Z" fill="white"/>
</svg>
