<svg width="28" height="28" viewBox="0 0 28 28" fill="none" xmlns="http://www.w3.org/2000/svg">
<path d="M2.625 9.625H25.375M1.93703 10.2927L13.2984 25.0288C13.3809 25.1365 13.4872 25.2237 13.6088 25.2837C13.7305 25.3437 13.8643 25.3749 14 25.3749C14.1357 25.3749 14.2695 25.3437 14.3912 25.2837C14.5128 25.2237 14.6191 25.1365 14.7016 25.0288L26.063 10.2927C26.1747 10.1473 26.2395 9.97129 26.2488 9.78814C26.258 9.60498 26.2114 9.42333 26.1149 9.26734L22.2611 3.04664C22.1818 2.91791 22.0708 2.81159 21.9388 2.73779C21.8068 2.664 21.6582 2.62517 21.507 2.625H6.49305C6.34183 2.62517 6.19316 2.664 6.06117 2.73779C5.92918 2.81159 5.81824 2.91791 5.73891 3.04664L1.88508 9.26734C1.78864 9.42333 1.74196 9.60498 1.75124 9.78814C1.76052 9.97129 1.82532 10.1473 1.93703 10.2927V10.2927Z" stroke="#0DB760" stroke-width="1.5" stroke-linecap="round" stroke-linejoin="round"/>
<path d="M21.875 3.5L19.25 9.625L14 2.625M6.125 3.5L8.75 9.625L14 2.625M14 24.5L8.75 9.625M14 24.5L19.25 9.625" stroke="#0DB760" stroke-width="1.5" stroke-linecap="round" stroke-linejoin="round"/>
</svg>
