<svg width="12" height="12" viewBox="0 0 12 12" fill="none" xmlns="http://www.w3.org/2000/svg">
<path d="M11.5 1.49917C11.0212 1.83691 10.4911 2.09522 9.93 2.26417C9.62887 1.91792 9.22867 1.67251 8.78352 1.56113C8.33837 1.44975 7.86975 1.47777 7.44104 1.6414C7.01233 1.80502 6.64422 2.09637 6.38649 2.47603C6.12876 2.85568 5.99385 3.30534 6 3.76417V4.26417C5.12132 4.28695 4.25064 4.09207 3.4655 3.69689C2.68037 3.30171 2.00516 2.71849 1.5 1.99917C1.5 1.99917 -0.5 6.49917 4 8.49917C2.97026 9.19815 1.74358 9.54863 0.5 9.49917C5 11.9992 10.5 9.49917 10.5 3.74917C10.4995 3.6099 10.4861 3.47097 10.46 3.33417C10.9703 2.83092 11.3304 2.19552 11.5 1.49917Z" fill="white"/>
</svg>
